<?xml version="1.0" encoding="iso-8859-1"?>
<!-- Generator: Adobe Illustrator 17.1.0, SVG Export Plug-In . SVG Version: 6.00 Build 0)  -->
<!DOCTYPE svg PUBLIC "-//W3C//DTD SVG 1.1//EN" "http://www.w3.org/Graphics/SVG/1.1/DTD/svg11.dtd">
<svg version="1.1" id="Capa_1" xmlns="http://www.w3.org/2000/svg" xmlns:xlink="http://www.w3.org/1999/xlink" x="0px" y="0px"
	 viewBox="0 0 277.466 277.466" style="enable-background:new 0 0 277.466 277.466;" xml:space="preserve">
<g>
	<path d="M268.299,59.733c5.247,0,9.167-4.253,9.167-9.5v-5c0-5.247-3.92-9.5-9.167-9.5h-20.833v-2c0-3.866-2.801-7-6.667-7h-13
		c-3.866,0-7.333,3.134-7.333,7v0.833c0-0.025-0.46,0.167-0.864,0.167h-24.737c-10.477,0-19.398,8.296-19.398,18.773v2.782
		L67.079,56.219c-21.293,0-38.873,8.441-51.028,24.41C5.518,94.468,0,113.049,0,134.366s5.426,39.898,15.959,53.736
		c8.001,10.511,18.507,17.736,30.507,21.464v21.167c0,11.046,9.288,20,20.333,20h180c11.046,0,19.667-8.954,19.667-20v-68
		c0-11.046-8.621-20-19.667-20h-180c-11.046,0-20.333,8.954-20.333,20v13.776c-15-10.92-16.583-33.689-16.583-42.143
		c0-11.295,2.768-48.146,37.302-48.146l109.324,0.286c2.199,8.06,9.607,14.228,18.355,14.228h24.737c0.404,0,0.864-0.47,0.864-0.495
		v0.495c0,3.866,3.467,7,7.333,7h13c3.866,0,6.667-3.134,6.667-7v-2h20.833c5.247,0,9.167-4.253,9.167-9.5v-5
		c0-5.247-3.92-9.5-9.167-9.5h-20.833v-15H268.299z M223.812,172.439c11.132,11.133,12.977,28.027,5.55,41.078l-2.636-2.635
		c-1.321-1.322-3.079-2.051-4.952-2.051c-1.871,0-3.629,0.727-4.949,2.049l-2.934,2.935c-1.321,1.32-2.049,3.078-2.049,4.949
		c0,1.873,0.729,3.631,2.048,4.949l2.639,2.639c-13.051,7.427-29.946,5.583-41.078-5.55c-11.132-11.132-12.976-28.027-5.55-41.078
		l2.052,2.052c1.32,1.32,3.078,2.048,4.949,2.048c1.871,0,3.629-0.727,4.949-2.048l2.936-2.936c2.73-2.729,2.73-7.17,0-9.898
		l-2.052-2.052C195.785,159.462,212.679,161.306,223.812,172.439z M138.516,172.439c11.132,11.133,12.977,28.027,5.549,41.079
		l-2.635-2.636c-1.321-1.322-3.079-2.051-4.952-2.051c-1.873,0-3.631,0.729-4.949,2.048l-2.938,2.938
		c-2.726,2.729-2.725,7.169,0.002,9.896l2.639,2.639c-13.051,7.426-29.946,5.582-41.078-5.55
		c-11.132-11.132-12.976-28.026-5.55-41.078l2.054,2.054c1.32,1.318,3.078,2.045,4.948,2.045s3.627-0.727,4.95-2.048l2.932-2.933
		c1.322-1.321,2.051-3.079,2.051-4.952c0-1.873-0.729-3.631-2.049-4.949l-2.051-2.052
		C110.489,159.462,127.383,161.306,138.516,172.439z"/>
	<path d="M127.233,193.767c2.684,0,5.206-1.046,7.104-2.943c3.917-3.916,3.917-10.29,0-14.206c-1.897-1.897-4.42-2.942-7.104-2.942
		s-5.207,1.045-7.103,2.942c-1.897,1.897-2.943,4.42-2.943,7.104c0,2.683,1.046,5.205,2.942,7.102
		C122.026,192.721,124.55,193.767,127.233,193.767z"/>
	<path d="M94.332,202.416c-1.897,1.897-2.943,4.42-2.943,7.103c0,2.683,1.046,5.205,2.943,7.103c1.897,1.897,4.42,2.943,7.103,2.943
		c2.684,0,5.206-1.046,7.104-2.943c3.917-3.916,3.917-10.29,0-14.206c-1.897-1.898-4.42-2.942-7.104-2.942
		C98.752,199.474,96.229,200.519,94.332,202.416z"/>
	<path d="M212.53,193.767c2.683,0,5.205-1.046,7.103-2.943c1.897-1.897,2.943-4.42,2.943-7.103c0-2.684-1.046-5.206-2.943-7.104
		c-1.897-1.897-4.42-2.942-7.103-2.942c-2.684,0-5.206,1.045-7.104,2.942c-3.917,3.916-3.917,10.29,0,14.206
		C207.324,192.721,209.847,193.767,212.53,193.767z"/>
	<path d="M179.628,202.416c-3.917,3.916-3.917,10.29,0,14.206c1.897,1.897,4.42,2.943,7.104,2.943c2.683,0,5.205-1.046,7.103-2.943
		c1.897-1.897,2.943-4.42,2.943-7.103c0-2.684-1.046-5.206-2.943-7.103c-1.897-1.898-4.42-2.942-7.103-2.942
		C184.048,199.474,181.525,200.519,179.628,202.416z"/>
</g>
<g>
</g>
<g>
</g>
<g>
</g>
<g>
</g>
<g>
</g>
<g>
</g>
<g>
</g>
<g>
</g>
<g>
</g>
<g>
</g>
<g>
</g>
<g>
</g>
<g>
</g>
<g>
</g>
<g>
</g>
</svg>
