<?xml version="1.0" encoding="UTF-8"?>
<svg width="301.96" height="353.09" version="1.1" xml:space="preserve" xmlns="http://www.w3.org/2000/svg" xmlns:cc="http://creativecommons.org/ns#" xmlns:dc="http://purl.org/dc/elements/1.1/" xmlns:rdf="http://www.w3.org/1999/02/22-rdf-syntax-ns#"><metadata><rdf:RDF><cc:Work rdf:about=""><dc:format>image/svg+xml</dc:format><dc:type rdf:resource="http://purl.org/dc/dcmitype/StillImage"/><dc:title/></cc:Work></rdf:RDF></metadata><g transform="matrix(1.25 0 0 -1.25 -230.65 825.32)"><path transform="matrix(.8 0 0 -.8 184.52 660.26)" d="m84.04 2.5913h132.96c0.0993 0 0.17922 0.066547 0.17922 0.14921v322.24c0 0.0827-0.0799 0.14921-0.17922 0.14921h-132.96c-0.09929 0-0.17922-0.0666-0.17922-0.14921v-322.24c0-0.082661 0.07993-0.14921 0.17922-0.14921z" stroke="#b3b3b3" stroke-linecap="round"/><g stroke="#fff" stroke-linecap="round" stroke-width="4.6548"><path transform="matrix(.68747 0 0 -.68747 286.55 457.37)" d="m98.978 49.374c0 3.2611-2.6437 5.9048-5.9048 5.9048s-5.9048-2.6437-5.9048-5.9048 2.6437-5.9048 5.9048-5.9048 5.9048 2.6437 5.9048 5.9048z"/><path transform="matrix(.68747 0 0 -.68747 286.55 472.49)" d="m98.978 49.374c0 3.2611-2.6437 5.9048-5.9048 5.9048s-5.9048-2.6437-5.9048-5.9048 2.6437-5.9048 5.9048-5.9048 5.9048 2.6437 5.9048 5.9048z"/><path transform="matrix(.68747 0 0 -.68747 286.55 487.61)" d="m98.978 49.374c0 3.2611-2.6437 5.9048-5.9048 5.9048s-5.9048-2.6437-5.9048-5.9048 2.6437-5.9048 5.9048-5.9048 5.9048 2.6437 5.9048 5.9048z"/><path transform="matrix(.68747 0 0 -.68747 286.55 502.73)" d="m98.978 49.374c0 3.2611-2.6437 5.9048-5.9048 5.9048s-5.9048-2.6437-5.9048-5.9048 2.6437-5.9048 5.9048-5.9048 5.9048 2.6437 5.9048 5.9048z"/><path transform="matrix(.68747 0 0 -.68747 286.55 517.86)" d="m98.978 49.374c0 3.2611-2.6437 5.9048-5.9048 5.9048s-5.9048-2.6437-5.9048-5.9048 2.6437-5.9048 5.9048-5.9048 5.9048 2.6437 5.9048 5.9048z"/><path transform="matrix(.68747 0 0 -.68747 286.55 532.98)" d="m98.978 49.374c0 3.2611-2.6437 5.9048-5.9048 5.9048s-5.9048-2.6437-5.9048-5.9048 2.6437-5.9048 5.9048-5.9048 5.9048 2.6437 5.9048 5.9048z"/><path transform="matrix(.68747 0 0 -.68747 286.55 548.1)" d="m98.978 49.374c0 3.2611-2.6437 5.9048-5.9048 5.9048s-5.9048-2.6437-5.9048-5.9048 2.6437-5.9048 5.9048-5.9048 5.9048 2.6437 5.9048 5.9048z"/><path transform="matrix(.68747 0 0 -.68747 286.55 563.22)" d="m98.978 49.374c0 3.2611-2.6437 5.9048-5.9048 5.9048s-5.9048-2.6437-5.9048-5.9048 2.6437-5.9048 5.9048-5.9048 5.9048 2.6437 5.9048 5.9048z"/><path transform="matrix(.68747 0 0 -.68747 286.55 578.34)" d="m98.978 49.374c0 3.2611-2.6437 5.9048-5.9048 5.9048s-5.9048-2.6437-5.9048-5.9048 2.6437-5.9048 5.9048-5.9048 5.9048 2.6437 5.9048 5.9048z"/><path transform="matrix(.68747 0 0 -.68747 286.55 593.46)" d="m98.978 49.374c0 3.2611-2.6437 5.9048-5.9048 5.9048s-5.9048-2.6437-5.9048-5.9048 2.6437-5.9048 5.9048-5.9048 5.9048 2.6437 5.9048 5.9048z"/><path transform="matrix(.68747 0 0 -.68747 286.55 608.58)" d="m98.978 49.374c0 3.2611-2.6437 5.9048-5.9048 5.9048s-5.9048-2.6437-5.9048-5.9048 2.6437-5.9048 5.9048-5.9048 5.9048 2.6437 5.9048 5.9048z"/><path transform="matrix(.68747 0 0 -.68747 286.55 623.7)" d="m98.978 49.374c0 3.2611-2.6437 5.9048-5.9048 5.9048s-5.9048-2.6437-5.9048-5.9048 2.6437-5.9048 5.9048-5.9048 5.9048 2.6437 5.9048 5.9048z"/><path transform="matrix(.68747 0 0 -.68747 286.55 638.82)" d="m98.978 49.374c0 3.2611-2.6437 5.9048-5.9048 5.9048s-5.9048-2.6437-5.9048-5.9048 2.6437-5.9048 5.9048-5.9048 5.9048 2.6437 5.9048 5.9048z"/><path transform="matrix(.68747 0 0 -.68747 286.55 653.95)" d="m98.978 49.374c0 3.2611-2.6437 5.9048-5.9048 5.9048s-5.9048-2.6437-5.9048-5.9048 2.6437-5.9048 5.9048-5.9048 5.9048 2.6437 5.9048 5.9048z"/><path transform="matrix(.68747 0 0 -.68747 286.55 669.07)" d="m98.978 49.374c0 3.2611-2.6437 5.9048-5.9048 5.9048s-5.9048-2.6437-5.9048-5.9048 2.6437-5.9048 5.9048-5.9048 5.9048 2.6437 5.9048 5.9048z"/></g><path transform="matrix(.68747 0 0 -.68747 373.89 703.67)" d="m98.978 49.374a5.9048 5.9048 0 1 1-11.81 0 5.9048 5.9048 0 1 1 11.81 0z" fill="none" stroke="#f00" stroke-linecap="round" stroke-width="4.6548"/><text transform="matrix(.8 0 0 -.8 184.52 660.26)" x="342.95258" y="209.69156" fill="#000000" font-family="sans-serif" letter-spacing="0px" word-spacing="0px" style="line-height:0%" xml:space="preserve"><tspan x="342.95258" y="209.69156" font-family="sans-serif" font-size="8px" style="line-height:1.25"> </tspan></text>
<g transform="matrix(0,1,1,0,0,0)"><path d="m417.09 267.38v4.0816h0.85781c0.72422 0 1.2545-0.16406 1.5908-0.49218 0.33633-0.32813 0.50449-0.8461 0.50449-1.5539 0-0.70312-0.16816-1.2182-0.50449-1.5451-0.33633-0.32695-0.8666-0.49042-1.5908-0.49043zm-0.71016-0.58359h1.459c1.0172 0 1.7637 0.21153 2.2394 0.63457 0.47578 0.42305 0.71367 1.0846 0.71367 1.9846 0 0.90469-0.23907 1.5691-0.71719 1.9934s-1.2234 0.63633-2.2359 0.63633h-1.459z"/><path d="m422.1 271.45h1.1602v-4.0043l-1.2621 0.25313v-0.64688l1.2551-0.25312h0.71016v4.6512h1.1602v0.59766h-3.0234z"/><path d="m427.18 271.45h2.4785v0.59766h-3.3328v-0.59766c0.26953-0.2789 0.63691-0.65332 1.1021-1.1232 0.46524-0.46992 0.75762-0.77285 0.87715-0.90879 0.22734-0.25547 0.38613-0.47168 0.47637-0.64863 0.0902-0.17695 0.13535-0.35098 0.13535-0.52207 0-0.27891-0.0978-0.50625-0.29355-0.68203-0.19571-0.17578-0.45059-0.26367-0.76465-0.26368-0.22266 1e-5 -0.45762 0.0387-0.70488 0.11602-0.24727 0.0774-0.51153 0.19453-0.79278 0.35156v-0.71719c0.28594-0.11483 0.55313-0.20155 0.80156-0.26015 0.24844-0.0586 0.47578-0.0879 0.68204-0.0879 0.54374 0 0.97734 0.13594 1.3008 0.40781 0.32343 0.27188 0.48515 0.63516 0.48515 1.0898 0 0.21563-0.0404 0.42012-0.12129 0.61348-0.0809 0.19336-0.22793 0.42129-0.44121 0.68379-0.0586 0.068-0.24492 0.26426-0.55898 0.58887-0.31407 0.32461-0.75703 0.77871-1.3289 1.3623z"/><path d="m432.59 267.38v4.0816h0.85782c0.72421 0 1.2545-0.16406 1.5908-0.49218 0.33632-0.32813 0.50449-0.8461 0.50449-1.5539 0-0.70312-0.16817-1.2182-0.50449-1.5451-0.33633-0.32695-0.86661-0.49042-1.5908-0.49043zm-0.71015-0.58359h1.459c1.0172 0 1.7637 0.21153 2.2395 0.63457 0.47577 0.42305 0.71366 1.0846 0.71367 1.9846-1e-5 0.90469-0.23907 1.5691-0.71719 1.9934-0.47813 0.42422-1.2234 0.63633-2.2359 0.63633h-1.459z"/><path d="m437.6 271.45h1.1602v-4.0043l-1.2621 0.25313v-0.64688l1.2551-0.25312h0.71015v4.6512h1.1602v0.59766h-3.0234z"/><path d="m442.19 271.45h1.1602v-4.0043l-1.2621 0.25313v-0.64688l1.2551-0.25312h0.71016v4.6512h1.1602v0.59766h-3.0234z"/><path d="m447.39 267.38v4.0816h0.85782c0.72421 0 1.2545-0.16406 1.5908-0.49218 0.33632-0.32813 0.50448-0.8461 0.50449-1.5539-1e-5 -0.70312-0.16817-1.2182-0.50449-1.5451-0.33633-0.32695-0.86661-0.49042-1.5908-0.49043zm-0.71015-0.58359h1.459c1.0172 0 1.7637 0.21153 2.2395 0.63457 0.47577 0.42305 0.71366 1.0846 0.71367 1.9846-1e-5 0.90469-0.23907 1.5691-0.71719 1.9934-0.47813 0.42422-1.2234 0.63633-2.2359 0.63633h-1.459z"/><path d="m452.41 271.45h1.1602v-4.0043l-1.2621 0.25313v-0.64688l1.2551-0.25312h0.71015v4.6512h1.1602v0.59766h-3.0234z"/><path d="m458.39 267.27c-0.36563 0-0.64043 0.17988-0.82441 0.53965-0.18399 0.35976-0.27598 0.90058-0.27598 1.6225 0 0.71953 0.092 1.2592 0.27598 1.6189 0.18398 0.35977 0.45878 0.53965 0.82441 0.53965 0.36797 0 0.64394-0.17988 0.82793-0.53965 0.18398-0.35976 0.27597-0.89941 0.27598-1.6189-1e-5 -0.72188-0.092-1.2627-0.27598-1.6225-0.18399-0.35977-0.45996-0.53965-0.82793-0.53965zm0-0.5625c0.58828 0 1.0377 0.23262 1.3482 0.69785 0.31054 0.46524 0.46582 1.1408 0.46582 2.0268 0 0.88359-0.15528 1.558-0.46582 2.0232-0.31055 0.46523-0.75996 0.69785-1.3482 0.69785s-1.0377-0.23262-1.3482-0.69785c-0.31055-0.46523-0.46582-1.1396-0.46582-2.0232 0-0.88594 0.15527-1.5615 0.46582-2.0268 0.31054-0.46523 0.75996-0.69785 1.3482-0.69785z"/><path d="m465.16 267.38v4.0816h0.85782c0.72421 0 1.2545-0.16406 1.5908-0.49218 0.33632-0.32813 0.50448-0.8461 0.50449-1.5539-1e-5 -0.70312-0.16817-1.2182-0.50449-1.5451-0.33634-0.32695-0.86661-0.49042-1.5908-0.49043zm-0.71015-0.58359h1.459c1.0172 0 1.7637 0.21153 2.2394 0.63457 0.47578 0.42305 0.71367 1.0846 0.71368 1.9846-1e-5 0.90469-0.23907 1.5691-0.71719 1.9934-0.47813 0.42422-1.2234 0.63633-2.2359 0.63633h-1.459z"/><path d="m470.07 271.94v-0.64687c0.17812 0.0844 0.35859 0.14883 0.5414 0.19336 0.18281 0.0445 0.36211 0.0668 0.53789 0.0668 0.46875 0 0.82676-0.15761 1.074-0.47285 0.24726-0.31523 0.38847-0.79394 0.42363-1.4361-0.13594 0.20156-0.30821 0.35625-0.5168 0.46406-0.20859 0.10782-0.43945 0.16172-0.69257 0.16172-0.52501 0-0.94044-0.15879-1.2463-0.47637-0.30586-0.31757-0.45879-0.75175-0.45879-1.3025 0-0.53905 0.15937-0.97148 0.47812-1.2973s0.74297-0.48867 1.2727-0.48867c0.60703 0 1.0705 0.23262 1.3904 0.69785 0.31992 0.46524 0.47988 1.1408 0.47988 2.0268 0 0.82734-0.19629 1.4877-0.58887 1.981s-0.92051 0.74004-1.5838 0.74004c-0.17812 0-0.35859-0.0176-0.5414-0.0527-0.18282-0.0352-0.37266-0.0879-0.56953-0.15821zm1.4133-2.2254c0.31875 0 0.57128-0.10898 0.75762-0.32695 0.18632-0.21797 0.27948-0.51679 0.27949-0.89649-1e-5 -0.37734-0.0932-0.67558-0.27949-0.89472-0.18634-0.21914-0.43887-0.32871-0.75762-0.32871s-0.57129 0.10957-0.75762 0.32871-0.27949 0.51738-0.27949 0.89472c0 0.3797 0.0932 0.67852 0.27949 0.89649 0.18633 0.21797 0.43887 0.32695 0.75762 0.32695z"/><path d="m480.49 267.38v4.0816h0.85781c0.72421 0 1.2545-0.16406 1.5908-0.49218 0.33632-0.32813 0.50449-0.8461 0.50449-1.5539 0-0.70312-0.16817-1.2182-0.50449-1.5451-0.33633-0.32695-0.86661-0.49042-1.5908-0.49043zm-0.71016-0.58359h1.459c1.0172 0 1.7637 0.21153 2.2395 0.63457 0.47577 0.42305 0.71366 1.0846 0.71367 1.9846-1e-5 0.90469-0.23907 1.5691-0.71719 1.9934-0.47813 0.42422-1.2234 0.63633-2.2359 0.63633h-1.459z"/><path d="m486.9 269.56c-0.33751 0-0.60294 0.0902-0.79629 0.2707-0.19336 0.18047-0.29004 0.42891-0.29004 0.74531 0 0.31641 0.0967 0.56485 0.29004 0.74532 0.19335 0.18047 0.45878 0.2707 0.79629 0.2707 0.33749 0 0.60351-0.0908 0.79804-0.27246 0.19453-0.18164 0.2918-0.42949 0.2918-0.74356 0-0.3164-0.0967-0.56484-0.29004-0.74531-0.19336-0.18046-0.45996-0.2707-0.7998-0.2707zm-0.71016-0.30234c-0.30469-0.075-0.54199-0.2168-0.71192-0.4254-0.16992-0.20859-0.25488-0.46288-0.25488-0.76289 0-0.41952 0.14942-0.75116 0.44824-0.99492 0.29883-0.24374 0.7084-0.36562 1.2287-0.36562 0.52265 0 0.9328 0.12188 1.2305 0.36562 0.29766 0.24376 0.44648 0.5754 0.44649 0.99492-1e-5 0.30001-0.085 0.5543-0.25488 0.76289-0.16993 0.2086-0.40606 0.3504-0.7084 0.4254 0.34218 0.0797 0.60878 0.23554 0.7998 0.46757 0.19101 0.23204 0.28652 0.51563 0.28653 0.85078-1e-5 0.5086-0.15528 0.89883-0.46583 1.1707-0.31055 0.27187-0.75527 0.40781-1.3342 0.40781-0.57891 0-1.0236-0.13594-1.3342-0.40781-0.31055-0.27188-0.46583-0.66211-0.46582-1.1707-1e-5 -0.33515 0.0961-0.61874 0.28828-0.85078 0.19218-0.23203 0.45937-0.38788 0.80156-0.46757zm-0.26016-1.1215c0 0.27188 0.085 0.48399 0.25489 0.63633 0.16992 0.15235 0.40839 0.22852 0.71543 0.22851 0.30468 1e-5 0.54316-0.0762 0.71542-0.22851 0.17227-0.15234 0.2584-0.36445 0.2584-0.63633 0-0.27187-0.0861-0.48398-0.2584-0.63633-0.17226-0.15234-0.41074-0.22851-0.71542-0.22851-0.30704 0-0.54551 0.0762-0.71543 0.22851-0.16993 0.15235-0.25489 0.36446-0.25489 0.63633z"/><path d="m495.47 267.38v4.0816h0.85781c0.72422 0 1.2545-0.16406 1.5908-0.49218 0.33633-0.32813 0.50449-0.8461 0.50449-1.5539 0-0.70312-0.16816-1.2182-0.50449-1.5451-0.33633-0.32695-0.8666-0.49042-1.5908-0.49043zm-0.71016-0.58359h1.459c1.0172 0 1.7637 0.21153 2.2394 0.63457 0.47578 0.42305 0.71367 1.0846 0.71367 1.9846 0 0.90469-0.23907 1.5691-0.71719 1.9934s-1.2234 0.63633-2.2359 0.63633h-1.459z"/><path d="m500.18 266.8h3.375v0.30234l-1.9055 4.9465h-0.74179l1.793-4.6512h-2.5207z"/><path d="m510.62 267.38v4.0816h0.85781c0.72421 0 1.2545-0.16406 1.5908-0.49218 0.33632-0.32813 0.50449-0.8461 0.50449-1.5539 0-0.70312-0.16817-1.2182-0.50449-1.5451-0.33633-0.32695-0.86661-0.49042-1.5908-0.49043zm-0.71016-0.58359h1.459c1.0172 0 1.7637 0.21153 2.2395 0.63457 0.47577 0.42305 0.71366 1.0846 0.71367 1.9846-1e-5 0.90469-0.23907 1.5691-0.71719 1.9934-0.47813 0.42422-1.2234 0.63633-2.2359 0.63633h-1.459z"/><path d="m517.12 269.14c-0.31876 0-0.57129 0.10898-0.75762 0.32695s-0.27949 0.5168-0.27949 0.89648c0 0.37735 0.0932 0.67559 0.27949 0.89473 0.18633 0.21914 0.43886 0.32871 0.75762 0.32871 0.31874 0 0.57128-0.10957 0.75761-0.32871s0.27949-0.51738 0.2795-0.89473c-1e-5 -0.37968-0.0932-0.67851-0.2795-0.89648-0.18633-0.21797-0.43887-0.32695-0.75761-0.32695zm1.4098-2.2254v0.64688c-0.17813-0.0844-0.35801-0.14882-0.53965-0.19336-0.18164-0.0445-0.36152-0.0668-0.53964-0.0668-0.46876 1e-5 -0.82676 0.15821-1.074 0.47461-0.24727 0.31641-0.38848 0.79454-0.42363 1.4344 0.13828-0.20391 0.31172-0.36035 0.52031-0.46934 0.20859-0.10898 0.43828-0.16347 0.68906-0.16347 0.52734 0 0.94395 0.15996 1.2498 0.47988 0.30585 0.31992 0.45878 0.75527 0.45879 1.306-1e-5 0.53907-0.15938 0.97149-0.47813 1.2973s-0.74297 0.48867-1.2726 0.48867c-0.60704 0-1.0711-0.23262-1.3922-0.69785-0.3211-0.46523-0.48164-1.1396-0.48164-2.0232 0-0.82969 0.19687-1.4912 0.59062-1.9846s0.92227-0.74004 1.5856-0.74004c0.17812 0 0.35801 0.0176 0.53965 0.0527 0.18164 0.0352 0.37089 0.0879 0.56777 0.1582z"/><path d="m526.12 267.38v4.0816h0.85782c0.72421 0 1.2545-0.16406 1.5908-0.49218 0.33632-0.32813 0.50448-0.8461 0.50449-1.5539-1e-5 -0.70312-0.16817-1.2182-0.50449-1.5451-0.33634-0.32695-0.86661-0.49042-1.5908-0.49043zm-0.71015-0.58359h1.459c1.0172 0 1.7637 0.21153 2.2394 0.63457 0.47578 0.42305 0.71367 1.0846 0.71368 1.9846-1e-5 0.90469-0.23907 1.5691-0.71719 1.9934-0.47813 0.42422-1.2234 0.63633-2.2359 0.63633h-1.459z"/><path d="m531.02 266.8h2.7879v0.59766h-2.1375v1.2867c0.10313-0.0351 0.20625-0.0615 0.30938-0.0791 0.10312-0.0176 0.20625-0.0264 0.30937-0.0264 0.58594 0 1.05 0.16055 1.3922 0.48164s0.51328 0.75586 0.51328 1.3043c0 0.56485-0.17578 1.0037-0.52734 1.3166-0.35157 0.31289-0.84727 0.46934-1.4871 0.46934-0.22031 0-0.44473-0.0188-0.67324-0.0562-0.22852-0.0375-0.46465-0.0937-0.7084-0.16875v-0.71367c0.21094 0.11484 0.4289 0.20039 0.65391 0.25664 0.22499 0.0562 0.46288 0.0844 0.71367 0.0844 0.40546 0 0.72656-0.10664 0.96328-0.31992 0.23671-0.21328 0.35507-0.50273 0.35508-0.86836-1e-5 -0.36562-0.11837-0.65507-0.35508-0.86836-0.23672-0.21328-0.55782-0.31992-0.96328-0.31992-0.18985 0-0.37911 0.0211-0.56778 0.0633s-0.38144 0.10782-0.57832 0.19688z"/><path d="m540.93 267.38v4.0816h0.85781c0.72422 0 1.2545-0.16406 1.5908-0.49218 0.33632-0.32813 0.50448-0.8461 0.50449-1.5539-1e-5 -0.70312-0.16817-1.2182-0.50449-1.5451-0.33634-0.32695-0.86661-0.49042-1.5908-0.49043zm-0.71015-0.58359h1.459c1.0172 0 1.7637 0.21153 2.2394 0.63457 0.47578 0.42305 0.71367 1.0846 0.71368 1.9846-1e-5 0.90469-0.23907 1.5691-0.71719 1.9934-0.47813 0.42422-1.2234 0.63633-2.2359 0.63633h-1.459z"/><path d="m547.77 267.42-1.793 2.802h1.793zm-0.18632-0.61875h0.89296v3.4207h0.74883v0.59063h-0.74883v1.2375h-0.70664v-1.2375h-2.3695v-0.68555z"/><path d="m556.26 267.38v4.0816h0.85782c0.72421 0 1.2545-0.16406 1.5908-0.49218 0.33632-0.32813 0.50448-0.8461 0.50449-1.5539-1e-5 -0.70312-0.16817-1.2182-0.50449-1.5451-0.33633-0.32695-0.86661-0.49042-1.5908-0.49043zm-0.71015-0.58359h1.459c1.0172 0 1.7637 0.21153 2.2395 0.63457 0.47577 0.42305 0.71366 1.0846 0.71367 1.9846-1e-5 0.90469-0.23907 1.5691-0.71719 1.9934-0.47813 0.42422-1.2234 0.63633-2.2359 0.63633h-1.459z"/><path d="m563.3 269.22c0.33984 0.0727 0.60527 0.22383 0.79629 0.45351 0.19101 0.22969 0.28651 0.51329 0.28652 0.85079-1e-5 0.51797-0.17813 0.91875-0.53438 1.2023s-0.8625 0.42539-1.5188 0.42539c-0.22031 0-0.44707-0.0217-0.68027-0.065-0.2332-0.0434-0.47402-0.1084-0.72246-0.19512v-0.68554c0.19687 0.11484 0.4125 0.20156 0.64687 0.26015 0.23438 0.0586 0.4793 0.0879 0.73477 0.0879 0.44531 0 0.78457-0.0879 1.0178-0.26367 0.2332-0.17578 0.34981-0.43125 0.34981-0.7664 0-0.30938-0.1084-0.55137-0.3252-0.72598s-0.51855-0.26191-0.90527-0.26191h-0.61172v-0.5836h0.63984c0.34922 0 0.61641-0.0697 0.80157-0.20918 0.18515-0.13945 0.27773-0.34042 0.27773-0.60293 0-0.26953-0.0955-0.47636-0.28652-0.62051-0.19102-0.14413-0.46465-0.2162-0.8209-0.21621-0.19453 1e-5 -0.40313 0.0211-0.62578 0.0633-0.22266 0.0422-0.46758 0.10782-0.73477 0.19688v-0.63281c0.26953-0.075 0.52207-0.13125 0.75762-0.16875s0.45762-0.0562 0.66621-0.0562c0.53906 0 0.96562 0.12246 1.2797 0.36738 0.31406 0.24493 0.47109 0.57598 0.47109 0.99316 0 0.29063-0.0832 0.53614-0.24961 0.73653s-0.40313 0.33926-0.71015 0.4166z"/><path d="m570.71 267.38v4.0816h0.85781c0.72421 0 1.2545-0.16406 1.5908-0.49218 0.33632-0.32813 0.50449-0.8461 0.50449-1.5539 0-0.70312-0.16817-1.2182-0.50449-1.5451-0.33633-0.32695-0.86661-0.49042-1.5908-0.49043zm-0.71016-0.58359h1.459c1.0172 0 1.7637 0.21153 2.2395 0.63457 0.47577 0.42305 0.71366 1.0846 0.71367 1.9846-1e-5 0.90469-0.23907 1.5691-0.71719 1.9934-0.47813 0.42422-1.2234 0.63633-2.2359 0.63633h-1.459z"/><path d="m576.22 271.45h2.4785v0.59766h-3.3328v-0.59766c0.26953-0.2789 0.63691-0.65332 1.1022-1.1232 0.46523-0.46992 0.75761-0.77285 0.87714-0.90879 0.22734-0.25547 0.38613-0.47168 0.47637-0.64863 0.0902-0.17695 0.13535-0.35098 0.13535-0.52207 0-0.27891-0.0979-0.50625-0.29355-0.68203-0.19571-0.17578-0.45059-0.26367-0.76465-0.26368-0.22266 1e-5 -0.45762 0.0387-0.70488 0.11602-0.24727 0.0774-0.51153 0.19453-0.79278 0.35156v-0.71719c0.28594-0.11483 0.55313-0.20155 0.80157-0.26015 0.24843-0.0586 0.47578-0.0879 0.68203-0.0879 0.54374 0 0.97734 0.13594 1.3008 0.40781 0.32343 0.27188 0.48515 0.63516 0.48515 1.0898 0 0.21563-0.0404 0.42012-0.12128 0.61348-0.0809 0.19336-0.22794 0.42129-0.44122 0.68379-0.0586 0.068-0.24492 0.26426-0.55898 0.58887s-0.75703 0.77871-1.3289 1.3623z"/><path d="m585.77 271.3v-1.4098h-1.1602v-0.58359h1.8633v2.2535c-0.27422 0.19453-0.57657 0.3416-0.90703 0.44121-0.33047 0.0996-0.68321 0.14941-1.0582 0.14941-0.82032 0-1.4619-0.23965-1.9248-0.71895-0.46289-0.47929-0.69434-1.1467-0.69434-2.0021 0-0.85781 0.23145-1.5264 0.69434-2.0057 0.46289-0.47929 1.1045-0.71894 1.9248-0.71894 0.34218 0 0.66737 0.0422 0.97558 0.12656 0.3082 0.0844 0.59238 0.2086 0.85254 0.37266v0.75586c-0.2625-0.22266-0.54141-0.39023-0.83672-0.50274-0.29531-0.11249-0.60586-0.16874-0.93164-0.16875-0.64219 1e-5 -1.1244 0.1793-1.4467 0.53789-0.32227 0.3586-0.4834 0.89297-0.4834 1.6031 0 0.70781 0.16113 1.241 0.4834 1.5996 0.32226 0.35859 0.80449 0.53789 1.4467 0.53789 0.25078 0 0.47461-0.0217 0.67149-0.065 0.19687-0.0434 0.37382-0.11074 0.53085-0.20215z"/><path d="m587.78 266.8h0.95625l2.3273 4.391v-4.391h0.68907v5.2488h-0.95625l-2.3274-4.391v4.391h-0.68906z"/><path d="m593.87 267.38v4.0816h0.85782c0.72421 0 1.2545-0.16406 1.5908-0.49218 0.33632-0.32813 0.50449-0.8461 0.50449-1.5539 0-0.70312-0.16817-1.2182-0.50449-1.5451-0.33633-0.32695-0.86661-0.49042-1.5908-0.49043zm-0.71015-0.58359h1.459c1.0172 0 1.7637 0.21153 2.2395 0.63457 0.47577 0.42305 0.71366 1.0846 0.71367 1.9846-1e-5 0.90469-0.23907 1.5691-0.71719 1.9934-0.47813 0.42422-1.2234 0.63633-2.2359 0.63633h-1.459z"/><path d="m601.41 269.59c0.15234 0.0516 0.30059 0.16172 0.44473 0.33047s0.28886 0.40078 0.43418 0.69609l0.7207 1.4344h-0.76289l-0.67148-1.3465c-0.17344-0.35156-0.34161-0.58476-0.50449-0.69961-0.1629-0.11484-0.38497-0.17226-0.66621-0.17226h-0.77344v2.2184h-0.71016v-5.2488h1.6031c0.59999 0 1.0476 0.12539 1.343 0.37617 0.2953 0.25079 0.44296 0.6293 0.44296 1.1356 0 0.33047-0.0768 0.60469-0.23027 0.82265-0.15352 0.21798-0.37676 0.36915-0.66973 0.45352zm-1.7789-2.2043v1.8633h0.89297c0.34218 1e-5 0.60058-0.0791 0.77519-0.2373s0.26191-0.39082 0.26192-0.69785c-1e-5 -0.30703-0.0873-0.53847-0.26192-0.69434-0.17461-0.15585-0.43301-0.23378-0.77519-0.23379z"/><path d="m607.07 266.97v0.69258c-0.26954-0.1289-0.52384-0.22499-0.76289-0.28828-0.23907-0.0633-0.46993-0.0949-0.69258-0.0949-0.38672 0-0.68497 0.075-0.89473 0.225-0.20977 0.15-0.31465 0.36328-0.31465 0.63984 0 0.23204 0.0697 0.40723 0.20918 0.52559 0.13945 0.11836 0.40371 0.21387 0.79278 0.28652l0.4289 0.0879c0.52969 0.10079 0.92051 0.27833 1.1725 0.53262 0.25195 0.2543 0.37793 0.59473 0.37793 1.0213 0 0.50859-0.17051 0.89414-0.51152 1.1566-0.34102 0.2625-0.84082 0.39375-1.4994 0.39375-0.24843 0-0.51269-0.0281-0.79277-0.0844s-0.57012-0.13946-0.87012-0.24961v-0.73125c0.28828 0.16172 0.57071 0.28359 0.84727 0.36562 0.27656 0.082 0.54844 0.12305 0.81562 0.12305 0.40547 0 0.71836-0.0797 0.93868-0.23906 0.22031-0.15938 0.33046-0.38672 0.33047-0.68204-1e-5 -0.25781-0.0791-0.45937-0.23731-0.60468s-0.41778-0.2543-0.77871-0.32696l-0.43242-0.0844c-0.52969-0.10547-0.91289-0.2707-1.1496-0.4957s-0.35508-0.53789-0.35508-0.93868c0-0.46405 0.16348-0.82968 0.49043-1.0969 0.32695-0.26718 0.77754-0.40078 1.3518-0.40078 0.24609 0 0.49687 0.0223 0.75234 0.0668s0.5168 0.11134 0.78399 0.20039z"/><path d="m607.77 266.8h4.4402v0.59766h-1.8633v4.6512h-0.71367v-4.6512h-1.8633z"/><path d="m616.04 269.59c0.15234 0.0516 0.30058 0.16172 0.44473 0.33047 0.14413 0.16875 0.28886 0.40078 0.43418 0.69609l0.7207 1.4344h-0.76289l-0.67149-1.3465c-0.17344-0.35156-0.3416-0.58476-0.50449-0.69961-0.16289-0.11484-0.38496-0.17226-0.66621-0.17226h-0.77344v2.2184h-0.71015v-5.2488h1.6031c0.6 0 1.0477 0.12539 1.343 0.37617 0.29531 0.25079 0.44297 0.6293 0.44297 1.1356 0 0.33047-0.0768 0.60469-0.23027 0.82265-0.15352 0.21798-0.37676 0.36915-0.66973 0.45352zm-1.7789-2.2043v1.8633h0.89297c0.34219 1e-5 0.60059-0.0791 0.7752-0.2373 0.1746-0.1582 0.26191-0.39082 0.26191-0.69785s-0.0873-0.53847-0.26191-0.69434c-0.17461-0.15585-0.43301-0.23378-0.7752-0.23379z"/><path d="m618.3 266.8h0.76289l1.3043 1.9512 1.3113-1.9512h0.76289l-1.6875 2.5207 1.8 2.7281h-0.76289l-1.4766-2.2324-1.4871 2.2324h-0.76641l1.8738-2.802z"/><path d="m625.07 267.27c-0.36563 0-0.64044 0.17988-0.82442 0.53965-0.18398 0.35976-0.27598 0.90058-0.27597 1.6225-1e-5 0.71953 0.092 1.2592 0.27597 1.6189 0.18398 0.35977 0.45879 0.53965 0.82442 0.53965 0.36796 0 0.64394-0.17988 0.82793-0.53965 0.18398-0.35976 0.27597-0.89941 0.27597-1.6189 0-0.72188-0.092-1.2627-0.27597-1.6225-0.18399-0.35977-0.45997-0.53965-0.82793-0.53965zm0-0.5625c0.58827 0 1.0377 0.23262 1.3482 0.69785 0.31054 0.46524 0.46581 1.1408 0.46582 2.0268-1e-5 0.88359-0.15528 1.558-0.46582 2.0232-0.31055 0.46523-0.75997 0.69785-1.3482 0.69785-0.58829 0-1.0377-0.23262-1.3482-0.69785-0.31054-0.46523-0.46582-1.1396-0.46582-2.0232 0-0.88594 0.15528-1.5615 0.46582-2.0268 0.31055-0.46523 0.75996-0.69785 1.3482-0.69785z"/><path d="m628.67 266.8h4.4402v0.59766h-1.8633v4.6512h-0.71367v-4.6512h-1.8633z"/><path d="m633.55 266.8h0.76289l1.3043 1.9512 1.3113-1.9512h0.76289l-1.6875 2.5207 1.8 2.7281h-0.76289l-1.4766-2.2324-1.4871 2.2324h-0.7664l1.8738-2.802z"/><path d="m638.92 271.45h1.1602v-4.0043l-1.2621 0.25313v-0.64688l1.2551-0.25312h0.71016v4.6512h1.1602v0.59766h-3.0234z"/></g><g stroke="#fff"><g stroke-linecap="round" stroke-width="4.6548"><path transform="matrix(.68747 0 0 -.68747 195.89 457.4)" d="m98.978 49.374c0 3.2611-2.6437 5.9048-5.9048 5.9048s-5.9048-2.6437-5.9048-5.9048 2.6437-5.9048 5.9048-5.9048 5.9048 2.6437 5.9048 5.9048z"/><path transform="matrix(.68747 0 0 -.68747 195.89 472.53)" d="m98.978 49.374c0 3.2611-2.6437 5.9048-5.9048 5.9048s-5.9048-2.6437-5.9048-5.9048 2.6437-5.9048 5.9048-5.9048 5.9048 2.6437 5.9048 5.9048z"/><path transform="matrix(.68747 0 0 -.68747 195.89 487.65)" d="m98.978 49.374c0 3.2611-2.6437 5.9048-5.9048 5.9048s-5.9048-2.6437-5.9048-5.9048 2.6437-5.9048 5.9048-5.9048 5.9048 2.6437 5.9048 5.9048z"/><path transform="matrix(.68747 0 0 -.68747 195.89 502.77)" d="m98.978 49.374c0 3.2611-2.6437 5.9048-5.9048 5.9048s-5.9048-2.6437-5.9048-5.9048 2.6437-5.9048 5.9048-5.9048 5.9048 2.6437 5.9048 5.9048z"/><path transform="matrix(.68747 0 0 -.68747 195.89 517.89)" d="m98.978 49.374c0 3.2611-2.6437 5.9048-5.9048 5.9048s-5.9048-2.6437-5.9048-5.9048 2.6437-5.9048 5.9048-5.9048 5.9048 2.6437 5.9048 5.9048z"/><path transform="matrix(.68747 0 0 -.68747 195.89 533.01)" d="m98.978 49.374c0 3.2611-2.6437 5.9048-5.9048 5.9048s-5.9048-2.6437-5.9048-5.9048 2.6437-5.9048 5.9048-5.9048 5.9048 2.6437 5.9048 5.9048z"/><path transform="matrix(.68747 0 0 -.68747 195.89 548.13)" d="m98.978 49.374c0 3.2611-2.6437 5.9048-5.9048 5.9048s-5.9048-2.6437-5.9048-5.9048 2.6437-5.9048 5.9048-5.9048 5.9048 2.6437 5.9048 5.9048z"/><path transform="matrix(.68747 0 0 -.68747 195.89 563.25)" d="m98.978 49.374c0 3.2611-2.6437 5.9048-5.9048 5.9048s-5.9048-2.6437-5.9048-5.9048 2.6437-5.9048 5.9048-5.9048 5.9048 2.6437 5.9048 5.9048z"/><path transform="matrix(.68747 0 0 -.68747 195.89 578.37)" d="m98.978 49.374c0 3.2611-2.6437 5.9048-5.9048 5.9048s-5.9048-2.6437-5.9048-5.9048 2.6437-5.9048 5.9048-5.9048 5.9048 2.6437 5.9048 5.9048z"/><path transform="matrix(.68747 0 0 -.68747 195.89 593.5)" d="m98.978 49.374c0 3.2611-2.6437 5.9048-5.9048 5.9048s-5.9048-2.6437-5.9048-5.9048 2.6437-5.9048 5.9048-5.9048 5.9048 2.6437 5.9048 5.9048z"/><path transform="matrix(.68747 0 0 -.68747 195.89 608.62)" d="m98.978 49.374c0 3.2611-2.6437 5.9048-5.9048 5.9048s-5.9048-2.6437-5.9048-5.9048 2.6437-5.9048 5.9048-5.9048 5.9048 2.6437 5.9048 5.9048z"/><path transform="matrix(.68747 0 0 -.68747 195.89 623.74)" d="m98.978 49.374c0 3.2611-2.6437 5.9048-5.9048 5.9048s-5.9048-2.6437-5.9048-5.9048 2.6437-5.9048 5.9048-5.9048 5.9048 2.6437 5.9048 5.9048z"/><path transform="matrix(.68747 0 0 -.68747 195.89 638.86)" d="m98.978 49.374c0 3.2611-2.6437 5.9048-5.9048 5.9048s-5.9048-2.6437-5.9048-5.9048 2.6437-5.9048 5.9048-5.9048 5.9048 2.6437 5.9048 5.9048z"/><path transform="matrix(.68747 0 0 -.68747 195.89 653.98)" d="m98.978 49.374c0 3.2611-2.6437 5.9048-5.9048 5.9048s-5.9048-2.6437-5.9048-5.9048 2.6437-5.9048 5.9048-5.9048 5.9048 2.6437 5.9048 5.9048z"/></g><path transform="matrix(.8 0 0 -.8 184.52 660.26)" d="m86.875 24.438v13.562h14.219v-13.562h-14.219zm7.25 3.0625c2.1545 0 3.875 1.7341 3.875 3.8438 0 2.1096-1.7205 3.8125-3.875 3.8125s-3.9062-1.7029-3.9062-3.8125c0-2.1096 1.7518-3.8438 3.9062-3.8438z"/></g><path d="m282.44 657.01h45.522v-29.767h-45.522z" fill="none" stroke="#333" stroke-linecap="round" stroke-width="1.6"/><g stroke="#fff"><g stroke-linecap="round" stroke-width="3.2"><path d="m294.15 634.74c0-2.2419-1.8174-4.0594-4.0594-4.0594-2.2419 0-4.0594 1.8174-4.0594 4.0594 0 2.2419 1.8174 4.0594 4.0594 4.0594 2.2419 0 4.0594-1.8174 4.0594-4.0594z"/><path d="m309.25 634.74c0-2.2419-1.8174-4.0594-4.0594-4.0594-2.2419 0-4.0594 1.8174-4.0594 4.0594 0 2.2419 1.8174 4.0594 4.0594 4.0594 2.2419 0 4.0594-1.8174 4.0594-4.0594z"/><path d="m324.44 634.74c0-2.2419-1.8174-4.0594-4.0594-4.0594-2.2419 0-4.0594 1.8174-4.0594 4.0594 0 2.2419 1.8174 4.0594 4.0594 4.0594 2.2419 0 4.0594-1.8174 4.0594-4.0594z"/><path d="m309.25 649.8c0-2.2419-1.8174-4.0594-4.0594-4.0594-2.2419 0-4.0594 1.8174-4.0594 4.0594 0 2.2419 1.8174 4.0594 4.0594 4.0594 2.2419 0 4.0594-1.8174 4.0594-4.0594z"/><path d="m294.15 649.8c0-2.2419-1.8174-4.0594-4.0594-4.0594-2.2419 0-4.0594 1.8174-4.0594 4.0594 0 2.2419 1.8174 4.0594 4.0594 4.0594 2.2419 0 4.0594-1.8174 4.0594-4.0594z"/></g><path d="m314.87 655.44v-11.225h10.9v11.225zm5.45-2.575c1.7236 0 3.125-1.3623 3.125-3.05s-1.4014-3.05-3.125-3.05-3.1 1.3623-3.1 3.05 1.3764 3.05 3.1 3.05z" stroke-width=".8"/><g><path d="m279.41 619.99c0-0.8584-5.2808-4.7212-5.8675-4.292-0.58675 0.4292-0.58675 8.1548 0 8.584s5.8675-3.4336 5.8675-4.292z" stroke-width=".75797"/><path d="m272.99 635.08c0-0.8584 5.2808-4.7212 5.8675-4.292 0.58675 0.4292 0.58675 8.1548 0 8.584s-5.8675-3.4336-5.8675-4.292z" stroke-width=".75797"/><g transform="scale(1.0458 -.95617)"><path d="m315.79-676.96h1.9214v-6.6316l-2.0902 0.41921v-1.0713l2.0786-0.41921h1.1761v7.7029h1.9214v0.98978h-5.0072z" stroke="#fff"/></g><g transform="matrix(0 1.0316 .96932 0 0 0)"><path d="m621.86 284.94h0.7034v5.1989h-0.7034z"/><path d="m627.86 285.34v0.74171c-0.2368-0.22054-0.48926-0.38536-0.75738-0.49448-0.26813-0.1091-0.55309-0.16365-0.85488-0.16366-0.5943 1e-5 -1.0493 0.18166-1.365 0.54496-0.31573 0.36332-0.47359 0.88855-0.47358 1.5757-1e-5 0.68484 0.15785 1.2089 0.47358 1.5722 0.31571 0.36331 0.77072 0.54497 1.365 0.54497 0.30179 0 0.58675-0.0546 0.85488-0.16366 0.26812-0.10911 0.52058-0.27394 0.75738-0.49448v0.73475c-0.24608 0.16714-0.50667 0.2925-0.78176 0.37608-0.27509 0.0836-0.56586 0.12535-0.87229 0.12535-0.78698 0-1.4068-0.24085-1.8595-0.72255-0.45269-0.48171-0.67903-1.1393-0.67903-1.9727 0-0.83572 0.22634-1.4944 0.67903-1.9762 0.45268-0.4817 1.0725-0.72255 1.8595-0.72255 0.31107 0 0.60416 0.0412 0.87926 0.12361 0.27509 0.0824 0.53335 0.20604 0.77479 0.37086z"/><path d="m632.07 285.11v0.686c-0.26697-0.12768-0.51885-0.22286-0.75564-0.28554-0.23679-0.0627-0.46546-0.094-0.68599-0.094-0.38305 0-0.67845 0.0743-0.88622 0.22286-0.20778 0.14858-0.31166 0.35983-0.31166 0.63376 0 0.22983 0.0691 0.40336 0.20719 0.52059 0.13813 0.11723 0.39987 0.21183 0.78524 0.2838l0.42483 0.087c0.52464 0.0998 0.91175 0.27568 1.1613 0.52755 0.24955 0.25189 0.37433 0.58908 0.37434 1.0116-1e-5 0.50376-0.1689 0.88564-0.50666 1.1456-0.33778 0.26-0.83283 0.39-1.4852 0.39-0.24608 0-0.50783-0.0279-0.78524-0.0836-0.27742-0.0557-0.5647-0.13813-0.86184-0.24723v-0.7243c0.28554 0.16018 0.56527 0.2809 0.83921 0.36215 0.27393 0.0813 0.54322 0.12187 0.80787 0.12187 0.40161 0 0.71152-0.0789 0.92974-0.23679 0.21822-0.15786 0.32733-0.38304 0.32733-0.67554 0-0.25536-0.0784-0.45501-0.23505-0.59894-0.1567-0.14393-0.4138-0.25188-0.7713-0.32385l-0.42832-0.0836c-0.52465-0.10446-0.90421-0.26813-1.1387-0.49099-0.23446-0.22286-0.3517-0.53277-0.3517-0.92975 0-0.45964 0.16192-0.82179 0.48577-1.0864 0.32384-0.26465 0.77014-0.39697 1.3389-0.39697 0.24375 0 0.49214 0.0221 0.74519 0.0662 0.25303 0.0441 0.51188 0.11027 0.77653 0.19848z"/><path d="m634.18 285.52v1.9535h0.88448c0.32733 1e-5 0.58037-0.0847 0.75912-0.2542 0.17875-0.16946 0.26813-0.41089 0.26813-0.72429 0-0.31108-0.0894-0.55135-0.26813-0.72082-0.17875-0.16946-0.43179-0.2542-0.75912-0.2542zm-0.7034-0.57805h1.5879c0.58269 1e-5 1.0232 0.13175 1.3215 0.39523 0.2983 0.2635 0.44746 0.64944 0.44746 1.1578 0 0.51304-0.14916 0.90073-0.44746 1.163-0.29831 0.26233-0.73881 0.39349-1.3215 0.39349h-0.88448v2.0893h-0.7034z"/></g></g></g><g fill="#fff"><g><path transform="matrix(.8 0 0 -.8 184.52 660.26)" d="m109.4 93.888h11.043c0.44605 0 0.80514 0.35909 0.80514 0.80514v10.428c0 0.44605-0.35909 0.80514-0.80514 0.80514h-11.043c-0.44605 0-0.80514-0.35909-0.80514-0.80514v-10.428c0-0.44605 0.35909-0.80514 0.80514-0.80514z"/><path transform="scale(1,-1)" d="m272.04-571.39h8.8341c0.35684 0 0.64411 0.28728 0.64411 0.64411v8.3428c0 0.35684-0.28727 0.64411-0.64411 0.64411h-8.8341c-0.35684 0-0.64412-0.28727-0.64412-0.64411v-8.3428c0-0.35683 0.28728-0.64411 0.64412-0.64411z"/><g transform="translate(16.314)"><path transform="matrix(.8 0 0 -.8 184.52 660.26)" d="m109.4 93.888h11.043c0.44605 0 0.80514 0.35909 0.80514 0.80514v10.428c0 0.44605-0.35909 0.80514-0.80514 0.80514h-11.043c-0.44605 0-0.80514-0.35909-0.80514-0.80514v-10.428c0-0.44605 0.35909-0.80514 0.80514-0.80514z"/><path transform="scale(1,-1)" d="m272.04-571.39h8.8341c0.35684 0 0.64411 0.28728 0.64411 0.64411v8.3428c0 0.35684-0.28727 0.64411-0.64411 0.64411h-8.8341c-0.35684 0-0.64412-0.28727-0.64412-0.64411v-8.3428c0-0.35683 0.28728-0.64411 0.64412-0.64411z"/></g><g transform="translate(37.05)"><path transform="matrix(.8 0 0 -.8 184.52 660.26)" d="m109.4 93.888h11.043c0.44605 0 0.80514 0.35909 0.80514 0.80514v10.428c0 0.44605-0.35909 0.80514-0.80514 0.80514h-11.043c-0.44605 0-0.80514-0.35909-0.80514-0.80514v-10.428c0-0.44605 0.35909-0.80514 0.80514-0.80514z"/><path transform="scale(1,-1)" d="m272.04-571.39h8.8341c0.35684 0 0.64411 0.28728 0.64411 0.64411v8.3428c0 0.35684-0.28727 0.64411-0.64411 0.64411h-8.8341c-0.35684 0-0.64412-0.28727-0.64412-0.64411v-8.3428c0-0.35683 0.28728-0.64411 0.64412-0.64411z"/></g><g transform="translate(57.687)"><path transform="matrix(.8 0 0 -.8 184.52 660.26)" d="m109.4 93.888h11.043c0.44605 0 0.80514 0.35909 0.80514 0.80514v10.428c0 0.44605-0.35909 0.80514-0.80514 0.80514h-11.043c-0.44605 0-0.80514-0.35909-0.80514-0.80514v-10.428c0-0.44605 0.35909-0.80514 0.80514-0.80514z"/><path transform="scale(1,-1)" d="m272.04-571.39h8.8341c0.35684 0 0.64411 0.28728 0.64411 0.64411v8.3428c0 0.35684-0.28727 0.64411-0.64411 0.64411h-8.8341c-0.35684 0-0.64412-0.28727-0.64412-0.64411v-8.3428c0-0.35683 0.28728-0.64411 0.64412-0.64411z"/></g></g><g transform="scale(1,-1)"><path d="m272.98-592.47h3.835v0.5162h-1.6093v4.0172h-0.6164v-4.0172h-1.6093z"/><path d="m277.19-592.47h0.65891l1.1265 1.6852 1.1326-1.6852h0.65891l-1.4575 2.1771 1.5547 2.3563h-0.65891l-1.2753-1.9282-1.2844 1.9282h-0.66195l1.6184-2.42z"/><path d="m291.36-590.06c0.13158 0.0445 0.25962 0.13968 0.38411 0.28543 0.1245 0.14575 0.2495 0.34616 0.37501 0.60122l0.62247 1.2389h-0.65891l-0.57996-1.163c-0.14981-0.30364-0.29505-0.50506-0.43574-0.60425-0.14069-0.0992-0.33249-0.14879-0.5754-0.14879h-0.66803v1.916h-0.61336v-4.5334h1.3846c0.51822 1e-5 0.90487 0.10831 1.1599 0.3249 0.25506 0.21661 0.38259 0.54353 0.3826 0.98078-1e-5 0.28543-0.0663 0.52227-0.19889 0.71053-0.1326 0.18826-0.32541 0.31883-0.57845 0.3917zm-1.5364-1.9038v1.6093h0.77126c0.29555 0 0.51873-0.0683 0.66954-0.20496 0.15081-0.13664 0.22622-0.33755 0.22622-0.60274 0-0.26518-0.0754-0.46508-0.22622-0.5997-0.15081-0.13461-0.37399-0.20192-0.66954-0.20192z"/><path d="m293.32-592.47h0.65891l1.1265 1.6852 1.1326-1.6852h0.65891l-1.4575 2.1771 1.5547 2.3563h-0.65891l-1.2753-1.9282-1.2844 1.9282h-0.66195l1.6184-2.42z"/><path d="m307.87-591.97v1.7034h0.77126c0.28542 0 0.50607-0.0739 0.66194-0.22166 0.15587-0.14777 0.23381-0.3583 0.23381-0.63159 0-0.27125-0.0779-0.48077-0.23381-0.62854-0.15587-0.14777-0.37652-0.22166-0.66194-0.22166zm-0.61337-0.50406h1.3846c0.50809 1e-5 0.89221 0.11489 1.1523 0.34464 0.26012 0.22976 0.39018 0.5663 0.39019 1.0096-1e-5 0.44738-0.13007 0.78544-0.39019 1.0142-0.26012 0.22875-0.64424 0.34312-1.1523 0.34312h-0.77126v1.8219h-0.61337z"/><path d="m310.61-592.47h0.61944l0.95345 3.832 0.95041-3.832h0.68928l0.95344 3.832 0.95042-3.832h0.62247l-1.1387 4.5334h-0.77126l-0.95649-3.9352-0.96559 3.9352h-0.77126z"/><path d="m319.31-590.06c0.13157 0.0445 0.25961 0.13968 0.38411 0.28543 0.12449 0.14575 0.24949 0.34616 0.375 0.60122l0.62247 1.2389h-0.65891l-0.57996-1.163c-0.1498-0.30364-0.29505-0.50506-0.43573-0.60425-0.14069-0.0992-0.3325-0.14879-0.57541-0.14879h-0.66802v1.916h-0.61337v-4.5334h1.3846c0.51822 1e-5 0.90486 0.10831 1.1599 0.3249 0.25505 0.21661 0.38259 0.54353 0.38259 0.98078 0 0.28543-0.0663 0.52227-0.19889 0.71053s-0.32541 0.31883-0.57844 0.3917zm-1.5364-1.9038v1.6093h0.77126c0.29554 0 0.51872-0.0683 0.66954-0.20496 0.15081-0.13664 0.22621-0.33755 0.22621-0.60274 0-0.26518-0.0754-0.46508-0.22621-0.5997-0.15082-0.13461-0.374-0.20192-0.66954-0.20192z"/><path d="m332.54-592.47h0.61336v4.0172h2.2075v0.51619h-2.8209z"/></g><path transform="scale(1,-1)" d="m272.36-574.1h8.2389c0.15266 0 0.27556 0.19496 0.27556 0.43713v0.47806c0 0.24217-0.1229 0.43713-0.27556 0.43713h-8.2389c-0.15266 0-0.27556-0.19496-0.27556-0.43713v-0.47806c0-0.24217 0.1229-0.43713 0.27556-0.43713z"/><path transform="scale(1,-1)" d="m272.36-561.03h8.2389c0.15266 0 0.27556 0.19496 0.27556 0.43713v0.47805c0 0.24218-0.1229 0.43714-0.27556 0.43714h-8.2389c-0.15266 0-0.27556-0.19496-0.27556-0.43714v-0.47805c0-0.24217 0.1229-0.43713 0.27556-0.43713z"/><g transform="translate(16.341)"><path transform="scale(1,-1)" d="m272.36-574.1h8.2389c0.15266 0 0.27556 0.19496 0.27556 0.43713v0.47806c0 0.24217-0.1229 0.43713-0.27556 0.43713h-8.2389c-0.15266 0-0.27556-0.19496-0.27556-0.43713v-0.47806c0-0.24217 0.1229-0.43713 0.27556-0.43713z"/><path transform="scale(1,-1)" d="m272.36-561.03h8.2389c0.15266 0 0.27556 0.19496 0.27556 0.43713v0.47805c0 0.24218-0.1229 0.43714-0.27556 0.43714h-8.2389c-0.15266 0-0.27556-0.19496-0.27556-0.43714v-0.47805c0-0.24217 0.1229-0.43713 0.27556-0.43713z"/></g><g transform="translate(37.189 12.96)"><path transform="scale(1,-1)" d="m272.36-574.1h8.2389c0.15266 0 0.27556 0.19496 0.27556 0.43713v0.47806c0 0.24217-0.1229 0.43713-0.27556 0.43713h-8.2389c-0.15266 0-0.27556-0.19496-0.27556-0.43713v-0.47806c0-0.24217 0.1229-0.43713 0.27556-0.43713z"/><path transform="scale(1,-1)" d="m272.36-561.03h8.2389c0.15266 0 0.27556 0.19496 0.27556 0.43713v0.47805c0 0.24218-0.1229 0.43714-0.27556 0.43714h-8.2389c-0.15266 0-0.27556-0.19496-0.27556-0.43714v-0.47805c0-0.24217 0.1229-0.43713 0.27556-0.43713z"/></g><g transform="translate(57.473 12.96)"><path transform="scale(1,-1)" d="m272.36-574.1h8.2389c0.15266 0 0.27556 0.19496 0.27556 0.43713v0.47806c0 0.24217-0.1229 0.43713-0.27556 0.43713h-8.2389c-0.15266 0-0.27556-0.19496-0.27556-0.43713v-0.47806c0-0.24217 0.1229-0.43713 0.27556-0.43713z"/><path transform="scale(1,-1)" d="m272.36-561.03h8.2389c0.15266 0 0.27556 0.19496 0.27556 0.43713v0.47805c0 0.24218-0.1229 0.43714-0.27556 0.43714h-8.2389c-0.15266 0-0.27556-0.19496-0.27556-0.43714v-0.47805c0-0.24217 0.1229-0.43713 0.27556-0.43713z"/></g></g><g fill="none" stroke="#b3b3b3" stroke-linecap="round"><path transform="matrix(.8 0 0 -.8 184.52 659.85)" d="m101.29 11.616c0 3.8304-3.1052 6.9356-6.9356 6.9356-3.8304 0-6.9356-3.1052-6.9356-6.9356 0-3.8304 3.1052-6.9356 6.9356-6.9356 3.8304 0 6.9356 3.1052 6.9356 6.9356z"/><path transform="matrix(.8 0 0 -.8 275.12 659.85)" d="m101.29 11.616c0 3.8304-3.1052 6.9356-6.9356 6.9356-3.8304 0-6.9356-3.1052-6.9356-6.9356 0-3.8304 3.1052-6.9356 6.9356-6.9356 3.8304 0 6.9356 3.1052 6.9356 6.9356z"/><path transform="matrix(.8 0 0 -.8 275.12 417.46)" d="m101.29 11.616c0 3.8304-3.1052 6.9356-6.9356 6.9356-3.8304 0-6.9356-3.1052-6.9356-6.9356 0-3.8304 3.1052-6.9356 6.9356-6.9356 3.8304 0 6.9356 3.1052 6.9356 6.9356z"/><path transform="matrix(.8 0 0 -.8 184.36 417.46)" d="m101.29 11.616c0 3.8304-3.1052 6.9356-6.9356 6.9356-3.8304 0-6.9356-3.1052-6.9356-6.9356 0-3.8304 3.1052-6.9356 6.9356-6.9356 3.8304 0 6.9356 3.1052 6.9356 6.9356z"/></g><g fill="#fff"><g transform="rotate(-45 496.57 857.44)"><g transform="translate(111.88 -41.133)"><path transform="scale(1,-1)" d="m490.16-535.31h0.27519c0.87119 0 1.5725 0.70135 1.5725 1.5725v8.2558c0 0.87118-0.70135 1.5725-1.5725 1.5725h-0.27519c-0.87119 0-1.5725-0.70135-1.5725-1.5725v-8.2558c0-0.87119 0.70135-1.5725 1.5725-1.5725z"/><path transform="scale(1,-1)" d="m494.92-535.31h0.2752c0.87118 0 1.5725 0.70135 1.5725 1.5725v8.2558c0 0.87118-0.70136 1.5725-1.5725 1.5725h-0.2752c-0.87118 0-1.5725-0.70135-1.5725-1.5725v-8.2558c0-0.87119 0.70135-1.5725 1.5725-1.5725z"/><path transform="scale(1,-1)" d="m499.69-535.31h0.2752c0.87118 0 1.5725 0.70135 1.5725 1.5725v8.2558c0 0.87118-0.70135 1.5725-1.5725 1.5725h-0.2752c-0.87118 0-1.5725-0.70135-1.5725-1.5725v-8.2558c0-0.87119 0.70135-1.5725 1.5725-1.5725z"/><path transform="scale(1,-1)" d="m504.46-535.31h0.2752c0.87118 0 1.5725 0.70135 1.5725 1.5725v8.2558c0 0.87118-0.70135 1.5725-1.5725 1.5725h-0.2752c-0.87118 0-1.5725-0.70135-1.5725-1.5725v-8.2558c0-0.87119 0.70136-1.5725 1.5725-1.5725z"/><path transform="scale(1,-1)" d="m509.22-535.31h0.27519c0.87119 0 1.5725 0.70135 1.5725 1.5725v8.2558c0 0.87118-0.70135 1.5725-1.5725 1.5725h-0.27519c-0.87119 0-1.5725-0.70135-1.5725-1.5725v-8.2558c0-0.87119 0.70135-1.5725 1.5725-1.5725z"/><path transform="scale(1,-1)" d="m513.99-535.31h0.27519c0.87119 0 1.5725 0.70135 1.5725 1.5725v8.2558c0 0.87118-0.70135 1.5725-1.5725 1.5725h-0.27519c-0.87119 0-1.5725-0.70135-1.5725-1.5725v-8.2558c0-0.87119 0.70135-1.5725 1.5725-1.5725z"/><path transform="scale(1,-1)" d="m518.76-535.31h0.27519c0.87119 0 1.5725 0.70135 1.5725 1.5725v8.2558c0 0.87118-0.70135 1.5725-1.5725 1.5725h-0.27519c-0.87119 0-1.5725-0.70135-1.5725-1.5725v-8.2558c0-0.87119 0.70135-1.5725 1.5725-1.5725z"/><path transform="scale(1,-1)" d="m523.52-535.31h0.2752c0.87118 0 1.5725 0.70135 1.5725 1.5725v8.2558c0 0.87118-0.70136 1.5725-1.5725 1.5725h-0.2752c-0.87118 0-1.5725-0.70135-1.5725-1.5725v-8.2558c0-0.87119 0.70135-1.5725 1.5725-1.5725z"/></g><g transform="translate(111.88 -89.066)"><path transform="scale(1,-1)" d="m490.16-535.31h0.27519c0.87119 0 1.5725 0.70135 1.5725 1.5725v8.2558c0 0.87118-0.70135 1.5725-1.5725 1.5725h-0.27519c-0.87119 0-1.5725-0.70135-1.5725-1.5725v-8.2558c0-0.87119 0.70135-1.5725 1.5725-1.5725z"/><path transform="scale(1,-1)" d="m494.92-535.31h0.2752c0.87118 0 1.5725 0.70135 1.5725 1.5725v8.2558c0 0.87118-0.70136 1.5725-1.5725 1.5725h-0.2752c-0.87118 0-1.5725-0.70135-1.5725-1.5725v-8.2558c0-0.87119 0.70135-1.5725 1.5725-1.5725z"/><path transform="scale(1,-1)" d="m499.69-535.31h0.2752c0.87118 0 1.5725 0.70135 1.5725 1.5725v8.2558c0 0.87118-0.70135 1.5725-1.5725 1.5725h-0.2752c-0.87118 0-1.5725-0.70135-1.5725-1.5725v-8.2558c0-0.87119 0.70135-1.5725 1.5725-1.5725z"/><path transform="scale(1,-1)" d="m504.46-535.31h0.2752c0.87118 0 1.5725 0.70135 1.5725 1.5725v8.2558c0 0.87118-0.70135 1.5725-1.5725 1.5725h-0.2752c-0.87118 0-1.5725-0.70135-1.5725-1.5725v-8.2558c0-0.87119 0.70136-1.5725 1.5725-1.5725z"/><path transform="scale(1,-1)" d="m509.22-535.31h0.27519c0.87119 0 1.5725 0.70135 1.5725 1.5725v8.2558c0 0.87118-0.70135 1.5725-1.5725 1.5725h-0.27519c-0.87119 0-1.5725-0.70135-1.5725-1.5725v-8.2558c0-0.87119 0.70135-1.5725 1.5725-1.5725z"/><path transform="scale(1,-1)" d="m513.99-535.31h0.27519c0.87119 0 1.5725 0.70135 1.5725 1.5725v8.2558c0 0.87118-0.70135 1.5725-1.5725 1.5725h-0.27519c-0.87119 0-1.5725-0.70135-1.5725-1.5725v-8.2558c0-0.87119 0.70135-1.5725 1.5725-1.5725z"/><path transform="scale(1,-1)" d="m518.76-535.31h0.27519c0.87119 0 1.5725 0.70135 1.5725 1.5725v8.2558c0 0.87118-0.70135 1.5725-1.5725 1.5725h-0.27519c-0.87119 0-1.5725-0.70135-1.5725-1.5725v-8.2558c0-0.87119 0.70135-1.5725 1.5725-1.5725z"/><path transform="scale(1,-1)" d="m523.52-535.31h0.2752c0.87118 0 1.5725 0.70135 1.5725 1.5725v8.2558c0 0.87118-0.70136 1.5725-1.5725 1.5725h-0.2752c-0.87118 0-1.5725-0.70135-1.5725-1.5725v-8.2558c0-0.87119 0.70135-1.5725 1.5725-1.5725z"/></g><g transform="rotate(90 607.45 564.98)"><path transform="scale(1,-1)" d="m490.16-535.31h0.27519c0.87119 0 1.5725 0.70135 1.5725 1.5725v8.2558c0 0.87118-0.70135 1.5725-1.5725 1.5725h-0.27519c-0.87119 0-1.5725-0.70135-1.5725-1.5725v-8.2558c0-0.87119 0.70135-1.5725 1.5725-1.5725z"/><path transform="scale(1,-1)" d="m494.92-535.31h0.2752c0.87118 0 1.5725 0.70135 1.5725 1.5725v8.2558c0 0.87118-0.70136 1.5725-1.5725 1.5725h-0.2752c-0.87118 0-1.5725-0.70135-1.5725-1.5725v-8.2558c0-0.87119 0.70135-1.5725 1.5725-1.5725z"/><path transform="scale(1,-1)" d="m499.69-535.31h0.2752c0.87118 0 1.5725 0.70135 1.5725 1.5725v8.2558c0 0.87118-0.70135 1.5725-1.5725 1.5725h-0.2752c-0.87118 0-1.5725-0.70135-1.5725-1.5725v-8.2558c0-0.87119 0.70135-1.5725 1.5725-1.5725z"/><path transform="scale(1,-1)" d="m504.46-535.31h0.2752c0.87118 0 1.5725 0.70135 1.5725 1.5725v8.2558c0 0.87118-0.70135 1.5725-1.5725 1.5725h-0.2752c-0.87118 0-1.5725-0.70135-1.5725-1.5725v-8.2558c0-0.87119 0.70136-1.5725 1.5725-1.5725z"/><path transform="scale(1,-1)" d="m509.22-535.31h0.27519c0.87119 0 1.5725 0.70135 1.5725 1.5725v8.2558c0 0.87118-0.70135 1.5725-1.5725 1.5725h-0.27519c-0.87119 0-1.5725-0.70135-1.5725-1.5725v-8.2558c0-0.87119 0.70135-1.5725 1.5725-1.5725z"/><path transform="scale(1,-1)" d="m513.99-535.31h0.27519c0.87119 0 1.5725 0.70135 1.5725 1.5725v8.2558c0 0.87118-0.70135 1.5725-1.5725 1.5725h-0.27519c-0.87119 0-1.5725-0.70135-1.5725-1.5725v-8.2558c0-0.87119 0.70135-1.5725 1.5725-1.5725z"/><path transform="scale(1,-1)" d="m518.76-535.31h0.27519c0.87119 0 1.5725 0.70135 1.5725 1.5725v8.2558c0 0.87118-0.70135 1.5725-1.5725 1.5725h-0.27519c-0.87119 0-1.5725-0.70135-1.5725-1.5725v-8.2558c0-0.87119 0.70135-1.5725 1.5725-1.5725z"/><path transform="scale(1,-1)" d="m523.52-535.31h0.2752c0.87118 0 1.5725 0.70135 1.5725 1.5725v8.2558c0 0.87118-0.70136 1.5725-1.5725 1.5725h-0.2752c-0.87118 0-1.5725-0.70135-1.5725-1.5725v-8.2558c0-0.87119 0.70135-1.5725 1.5725-1.5725z"/></g><g transform="rotate(90 583.48 541.02)"><path transform="scale(1,-1)" d="m490.16-535.31h0.27519c0.87119 0 1.5725 0.70135 1.5725 1.5725v8.2558c0 0.87118-0.70135 1.5725-1.5725 1.5725h-0.27519c-0.87119 0-1.5725-0.70135-1.5725-1.5725v-8.2558c0-0.87119 0.70135-1.5725 1.5725-1.5725z"/><path transform="scale(1,-1)" d="m494.92-535.31h0.2752c0.87118 0 1.5725 0.70135 1.5725 1.5725v8.2558c0 0.87118-0.70136 1.5725-1.5725 1.5725h-0.2752c-0.87118 0-1.5725-0.70135-1.5725-1.5725v-8.2558c0-0.87119 0.70135-1.5725 1.5725-1.5725z"/><path transform="scale(1,-1)" d="m499.69-535.31h0.2752c0.87118 0 1.5725 0.70135 1.5725 1.5725v8.2558c0 0.87118-0.70135 1.5725-1.5725 1.5725h-0.2752c-0.87118 0-1.5725-0.70135-1.5725-1.5725v-8.2558c0-0.87119 0.70135-1.5725 1.5725-1.5725z"/><path transform="scale(1,-1)" d="m504.46-535.31h0.2752c0.87118 0 1.5725 0.70135 1.5725 1.5725v8.2558c0 0.87118-0.70135 1.5725-1.5725 1.5725h-0.2752c-0.87118 0-1.5725-0.70135-1.5725-1.5725v-8.2558c0-0.87119 0.70136-1.5725 1.5725-1.5725z"/><path transform="scale(1,-1)" d="m509.22-535.31h0.27519c0.87119 0 1.5725 0.70135 1.5725 1.5725v8.2558c0 0.87118-0.70135 1.5725-1.5725 1.5725h-0.27519c-0.87119 0-1.5725-0.70135-1.5725-1.5725v-8.2558c0-0.87119 0.70135-1.5725 1.5725-1.5725z"/><path transform="scale(1,-1)" d="m513.99-535.31h0.27519c0.87119 0 1.5725 0.70135 1.5725 1.5725v8.2558c0 0.87118-0.70135 1.5725-1.5725 1.5725h-0.27519c-0.87119 0-1.5725-0.70135-1.5725-1.5725v-8.2558c0-0.87119 0.70135-1.5725 1.5725-1.5725z"/><path transform="scale(1,-1)" d="m518.76-535.31h0.27519c0.87119 0 1.5725 0.70135 1.5725 1.5725v8.2558c0 0.87118-0.70135 1.5725-1.5725 1.5725h-0.27519c-0.87119 0-1.5725-0.70135-1.5725-1.5725v-8.2558c0-0.87119 0.70135-1.5725 1.5725-1.5725z"/><path transform="scale(1,-1)" d="m523.52-535.31h0.2752c0.87118 0 1.5725 0.70135 1.5725 1.5725v8.2558c0 0.87118-0.70136 1.5725-1.5725 1.5725h-0.2752c-0.87118 0-1.5725-0.70135-1.5725-1.5725v-8.2558c0-0.87119 0.70135-1.5725 1.5725-1.5725z"/></g></g><g><path d="m273.84 413.07h11.242c0.69694 0 1.258-0.56108 1.258-1.258v-8.6873c0-0.69695-0.56109-1.258-1.258-1.258h-11.242c-0.69695 0-1.258 0.56108-1.258 1.258v8.6873c0 0.69694 0.56108 1.258 1.258 1.258z"/><path d="m325.14 413.07h11.832c0.69695 0 1.258-0.56108 1.258-1.258v-8.6873c0-0.69695-0.56108-1.258-1.258-1.258h-11.832c-0.69694 0-1.258 0.56108-1.258 1.258v8.6873c0 0.69695 0.56108 1.258 1.258 1.258z"/><path d="m273.49 445.89h11.844c0.55756 0 1.0064-0.44886 1.0064-1.0064v-8.6991c0-0.55756-0.44886-1.0064-1.0064-1.0064h-11.844c-0.55756 0-1.0064 0.44886-1.0064 1.0064v8.6991c0 0.55756 0.44886 1.0064 1.0064 1.0064z"/><path d="m324.78 446.09h12.541c0.44604 0 0.80513-0.35909 0.80513-0.80514v-9.2c0-0.44605-0.35909-0.80514-0.80513-0.80514h-12.541c-0.44604 0-0.80513 0.35909-0.80513 0.80514v9.2c0 0.44605 0.35909 0.80514 0.80513 0.80514z"/></g><g transform="rotate(45 443.32 228.44)"><path transform="scale(1,-1)" d="m530.2-559.19h4.164c0.22324 0 0.40296 0.30463 0.40296 0.68302v11.596c0 0.37839-0.17972 0.68302-0.40296 0.68302h-4.164c-0.22324 0-0.40296-0.30463-0.40296-0.68302v-11.596c0-0.37839 0.17972-0.68302 0.40296-0.68302z"/><path transform="scale(1,-1)" d="m536.04-559.19h4.164c0.22324 0 0.40297 0.30463 0.40297 0.68302v11.596c0 0.37839-0.17973 0.68302-0.40297 0.68302h-4.164c-0.22324 0-0.40296-0.30463-0.40296-0.68302v-11.596c0-0.37839 0.17972-0.68302 0.40296-0.68302z"/><path transform="scale(1,-1)" d="m541.88-559.19h4.164c0.22324 0 0.40296 0.30463 0.40296 0.68302v11.596c0 0.37839-0.17972 0.68302-0.40296 0.68302h-4.164c-0.22324 0-0.40297-0.30463-0.40297-0.68302v-11.596c0-0.37839 0.17973-0.68302 0.40297-0.68302z"/></g><g transform="matrix(1 0 0 2.9861 0 -895.29)"><path transform="scale(1,-1)" d="m294.4-450.78h2.9408c0.1786 0 0.32237 0.2437 0.32237 0.54641v14.978c0 0.30271-0.14377 0.54642-0.32237 0.54642h-2.9408c-0.17859 0-0.32237-0.24371-0.32237-0.54642v-14.978c0-0.30271 0.14378-0.54641 0.32237-0.54641z"/><path transform="scale(1,-1)" d="m299.17-450.78h2.9408c0.1786 0 0.32237 0.2437 0.32237 0.54641v14.978c0 0.30271-0.14377 0.54642-0.32237 0.54642h-2.9408c-0.17859 0-0.32237-0.24371-0.32237-0.54642v-14.978c0-0.30271 0.14378-0.54641 0.32237-0.54641z"/><path transform="scale(1,-1)" d="m303.94-450.78h2.9408c0.1786 0 0.32238 0.2437 0.32238 0.54641v14.978c0 0.30271-0.14378 0.54642-0.32238 0.54642h-2.9408c-0.17859 0-0.32237-0.24371-0.32237-0.54642v-14.978c0-0.30271 0.14378-0.54641 0.32237-0.54641z"/><path transform="scale(1,-1)" d="m308.71-450.78h2.9408c0.17859 0 0.32237 0.2437 0.32237 0.54641v14.978c0 0.30271-0.14378 0.54642-0.32237 0.54642h-2.9408c-0.1786 0-0.32237-0.24371-0.32237-0.54642v-14.978c0-0.30271 0.14377-0.54641 0.32237-0.54641z"/><path transform="scale(1,-1)" d="m313.48-450.78h2.9408c0.17859 0 0.32237 0.2437 0.32237 0.54641v14.978c0 0.30271-0.14378 0.54642-0.32237 0.54642h-2.9408c-0.1786 0-0.32237-0.24371-0.32237-0.54642v-14.978c0-0.30271 0.14377-0.54641 0.32237-0.54641z"/></g><path d="m307.58 527.62c0-1.4004-1.1352-2.5356-2.5356-2.5356s-2.5356 1.1352-2.5356 2.5356c0 1.4004 1.1352 2.5356 2.5356 2.5356s2.5356-1.1352 2.5356-2.5356z" stroke="#000" stroke-linecap="round" stroke-width="1.6"/><g transform="translate(-267.54 15.975)" stroke="#000" stroke-linecap="round" stroke-width="1.6"><path transform="matrix(.70711 -.70711 -.70711 -.70711 0 0)" d="m23.517-757.63h9.4558c0.09929 0 0.17922 0.0666 0.17922 0.14921v0.0496c0 0.0827-0.07993 0.1492-0.17922 0.1492h-9.4558c-0.09929 0-0.17922-0.0665-0.17922-0.1492v-0.0496c0-0.0827 0.07993-0.14921 0.17922-0.14921z"/><path transform="matrix(.70711 -.70711 -.70711 -.70711 0 0)" d="m23.517-738.07h9.4558c0.09929 0 0.17922 0.0666 0.17922 0.14921v0.0496c0 0.0827-0.07993 0.1492-0.17922 0.1492h-9.4558c-0.09929 0-0.17922-0.0665-0.17922-0.1492v-0.0496c0-0.0827 0.07993-0.14921 0.17922-0.14921z"/></g><path d="m291.03 436.26h29.402c0.0635 0 0.1147-0.0426 0.1147-0.0955v-34.81c0-0.0529-0.0511-0.0955-0.1147-0.0955h-29.402c-0.0635 0-0.1147 0.0426-0.1147 0.0955v34.81c0 0.0529 0.0511 0.0955 0.1147 0.0955z" opacity=".9"/><path d="m284.45 494.9 18.781 18.781c1.0273 1.0273 2.6763 1.0324 3.6973 0.0114l18.804-18.804c1.021-1.021 1.016-2.67-0.0114-3.6973l-18.781-18.781c-1.0273-1.0273-2.6763-1.0324-3.6973-0.0114l-18.804 18.804c-1.021 1.021-1.016 2.67 0.0114 3.6973z" opacity=".9"/></g></g></svg>
