<?xml version="1.0" encoding="iso-8859-1"?>
<!-- Generator: Adobe Illustrator 17.1.0, SVG Export Plug-In . SVG Version: 6.00 Build 0)  -->
<!DOCTYPE svg PUBLIC "-//W3C//DTD SVG 1.1//EN" "http://www.w3.org/Graphics/SVG/1.1/DTD/svg11.dtd">
<svg version="1.1" id="Capa_1" xmlns="http://www.w3.org/2000/svg" xmlns:xlink="http://www.w3.org/1999/xlink" x="0px" y="0px"
	 viewBox="0 0 289.512 289.512" style="enable-background:new 0 0 289.512 289.512;" xml:space="preserve">
<path style="fill:#000002;" d="M276.69,193.756h-39.026c-0.309,0-0.612-0.344-0.915-0.323c-1.244-5.88-6.471-10.677-12.716-10.677
	H154.45c-7.168,0-12.938,6.144-12.938,13.312v20.688H62.223C44.455,216.756,30,202.065,30,184.297s14.455-32.341,32.215-32.341
	l132.09,0.008c34.31,0,62.223-27.795,62.223-62.105c0-34.31-27.913-62.105-62.223-62.105h-48.793v-4.745
	c0-7.168-5.188-13.255-12.355-13.255H95.95c-4.732,0-8.87,3-11.144,7H64.911c-7.168,0-13.4,5.428-13.4,12.596v25.053
	c0,7.168,6.231,13.352,13.4,13.352h19.895c2.274,3,6.412,6,11.144,6h37.206c7.168,0,12.355-5.843,12.355-13.011v-2.989h48.793
	c17.768,0,32.223,14.308,32.223,32.075s-14.455,32.149-32.215,32.149l-132.09-0.104C27.913,121.876,0,150.006,0,184.316
	c0,34.31,27.913,62.44,62.223,62.44h79.289v19.745c0,7.168,5.771,13.255,12.938,13.255h69.583c6.244,0,11.471-4.797,12.715-10.676
	c0.304,0.021,0.606-0.324,0.915-0.324h39.026c7.168,0,12.821-5.347,12.821-12.515v-49.913
	C289.512,199.16,283.858,193.756,276.69,193.756z M271.512,253.756h-25v-15h25V253.756z M271.512,223.756h-25v-15h25V223.756z"/>
<g>
</g>
<g>
</g>
<g>
</g>
<g>
</g>
<g>
</g>
<g>
</g>
<g>
</g>
<g>
</g>
<g>
</g>
<g>
</g>
<g>
</g>
<g>
</g>
<g>
</g>
<g>
</g>
<g>
</g>
</svg>
